<svg xmlns="http://www.w3.org/2000/svg" id="Camada_1" data-name="Camada 1" viewBox="0 0 755 278.16"><defs><style>      .cls-1 {        fill: #f47920;      }      .cls-2 {        fill: #fff;      }      .cls-3 {        fill: #00995c;      }    </style></defs><path class="cls-2" d="M695.4,6.62c29.26,0,52.98,23.72,52.98,52.98v211.93H59.61c-29.26,0-52.98-23.72-52.98-52.98V59.6C6.62,30.34,30.34,6.62,59.61,6.62h635.79Z"></path><path class="cls-1" d="M695.4,6.62c29.26,0,52.98,23.72,52.98,52.98v211.93H59.61c-29.26,0-52.98-23.72-52.98-52.98V59.61C6.62,30.34,30.34,6.62,59.61,6.62h635.79ZM695.4,0H59.61C26.74,0,0,26.74,0,59.61v158.95c0,32.87,26.74,59.6,59.61,59.6h695.39V59.61c0-32.87-26.74-59.61-59.6-59.61"></path><path class="cls-3" d="M72.85,141.3c0-.78.68-1.46,1.46-1.46h17.47c.78,0,1.46.68,1.46,1.46v39.21c0,7.28,3.49,11.75,11.45,11.75s11.36-4.47,11.36-11.75v-39.21c0-.78.68-1.46,1.46-1.46h17.47c.78,0,1.46.68,1.46,1.46v38.05c0,17.08-8.54,29.41-31.74,29.41s-31.84-12.33-31.84-29.41v-38.05ZM146.14,206.33v-48.53c0-.78.68-1.46,1.46-1.46h16.5c.78,0,1.46.68,1.46,1.46v8.83c2.33-6.99,10.1-11.26,18.35-11.26,9.71,0,15.82,5.05,15.82,18.44v32.52c0,.78-.68,1.46-1.46,1.46h-16.5c-.78,0-1.46-.68-1.46-1.46v-28.73c0-4.66-1.55-7.47-7.18-7.47s-7.57,1.07-7.57,2.82v33.39c0,.78-.68,1.46-1.46,1.46h-16.5c-.78,0-1.46-.68-1.46-1.46M218.55,135.86c8.44,0,10.77.78,10.77,7.67s-2.33,7.76-10.77,7.76-10.87-.68-10.87-7.76,2.43-7.67,10.87-7.67M208.94,157.8c0-.78.68-1.46,1.46-1.46h16.5c.78,0,1.46.68,1.46,1.46v48.53c0,.78-.68,1.46-1.46,1.46h-16.5c-.78,0-1.46-.68-1.46-1.46v-48.53ZM359.39,155.37c17.96,0,25.82,9.9,25.82,25.24,0,3.3.1,6.5-3.79,6.5h-29.99c.97,6.12,4.46,8.35,16.02,8.35h14.75c.97,0,1.75.87,1.55,1.84l-1.55,7.86c-.1.49-.29.78-.58.87-4.66,1.94-11.55,2.72-19.61,2.72-21.16,0-30.67-10.19-30.67-26.89s9.22-26.5,28.05-26.5M367.35,177.6c0-6.02-1.75-9.8-7.67-9.8-4.95,0-7.77,2.33-8.45,9.8h16.11ZM410.64,155.37c7.86,0,13.2,3.79,16.31,10.1v-24.2c0-.78.68-1.46,1.46-1.46h16.5c.78,0,1.46.68,1.46,1.46v65.07c0,.78-.68,1.46-1.46,1.46h-16.5c-.78,0-1.46-.68-1.46-1.46v-7.67c-3.11,6.31-8.44,10.1-16.31,10.1-13.39,0-18.64-11.07-18.64-26.69s5.24-26.69,18.64-26.69M420.45,194.68c4.56,0,6.5-2.04,6.5-4.66v-16.5c0-2.72-2.52-4.08-6.5-4.08-5.73,0-8.06,3.98-8.06,12.62s2.33,12.62,8.06,12.62"></path><path class="cls-3" d="M238.06,157.8c0-.78.68-1.46,1.46-1.46h16.5c.78,0,1.46.68,1.46,1.46v8.83c2.33-6.99,10-11.26,17.67-11.26s12.81,3.2,14.75,10.68c2.62-6.7,10.39-10.68,18.06-10.68,9.61,0,15.92,5.05,15.92,17.47v33.49c0,.78-.68,1.46-1.46,1.46h-16.5c-.78,0-1.46-.68-1.46-1.46v-28.73c0-4.66-1.55-7.47-6.7-7.47s-7.09,1.07-7.09,2.81v33.39c0,.78-.68,1.46-1.46,1.46h-16.5c-.78,0-1.46-.68-1.46-1.46v-28.73c0-4.66-1.55-7.47-6.7-7.47s-7.09,1.07-7.09,2.81v33.39c0,.78-.68,1.46-1.46,1.46h-16.5c-.78,0-1.46-.68-1.46-1.46v-48.53Z"></path><path class="cls-1" d="M492.75,207.79h43.4c2.54,0,3.91-.78,5.28-2.54l28.18-38.25c.59-.78,1.17-1.76,1.17-2.74,0-1.37-1.37-2.15-3.72-2.15h-16.21c-2.54,0-3.91-1.17-3.91-2.74,0-.98.59-1.96,1.17-2.74l25.83-34.67c.59-.78,1.17-1.76,1.17-2.74,0-1.57-1.37-2.74-3.91-2.74h-19.21c-2.54,0-3.91-.98-3.91-2.54,0-.98.59-2.15,1.17-2.93l25.08-33.33c1.37-1.76,3.33-2.35,5.09-2.35s3.72.59,5.09,2.35l25.08,33.33c.59.78,1.17,1.96,1.17,2.93,0,1.57-1.37,2.54-3.91,2.54h-19.21c-2.54,0-3.91,1.17-3.91,2.74,0,.98.59,1.96,1.17,2.74l25.83,34.67c.59.78,1.17,1.76,1.17,2.74,0,1.56-1.37,2.74-3.91,2.74h-16.21c-2.35,0-3.72.78-3.72,2.15,0,.98.59,1.96,1.17,2.74l28.18,38.25c1.37,1.76,2.93,2.54,5.28,2.54h43.41c3.13,0,4.89-1.17,4.89-3.13,0-1.17-.59-2.35-1.17-3.13l-25.44-34.53c-.59-.78-1.17-1.76-1.17-2.74,0-1.37,1.37-2.15,3.72-2.15h30.52c3.13,0,4.7-1.17,4.7-3.13,0-1.17-.59-2.35-1.17-3.13l-62.42-82.67c-1.17-1.57-2.35-2.35-5.09-2.35h-70.05c-1.76,0-3.72.39-5.09,2.35l-60.46,82.67c-.78,1.17-1.17,2.15-1.17,3.13,0,1.96,1.57,3.13,4.7,3.13h30.52c2.35,0,3.72.78,3.72,2.15,0,.98-.59,1.96-1.17,2.74l-25.44,34.53c-.59.78-1.17,1.96-1.17,3.13,0,1.96,1.76,3.13,4.89,3.13"></path><polygon class="cls-1" points="83.94 80.5 83.94 92.6 100.54 92.6 100.54 102.34 83.94 102.34 83.94 117.87 72.85 117.87 72.85 70.82 103.57 70.82 103.57 80.5 83.94 80.5"></polygon><path class="cls-1" d="M145.44,117v.87h-11.36l-2.35-8.07h-15.33l-2.35,8.07h-11.36v-.87l14.79-46.18h13.17l14.79,46.18ZM128.98,100.26l-4.91-16.87-4.91,16.87h9.81Z"></path><path class="cls-1" d="M183.76,71.69l-1.82,9.14c-3.29-.74-5.65-1.08-8.33-1.08-8.47,0-14.59,5.38-14.59,15.26,0,8.87,5.71,13.85,14.85,13.85,3.09,0,5.85-.4,8.6-1.14l1.88,9.07c-4.17,1.41-8.47,2.02-12.5,2.02-14.18,0-24.2-8-24.2-23.8s10.28-25.14,24.53-25.14c4.24,0,8,.6,11.56,1.81"></path><path class="cls-1" d="M229.66,100.06c0,11.56-6.86,18.75-19.56,18.75s-19.76-7.19-19.76-18.75v-29.24h10.82v28.23c0,5.91,3.29,10.08,8.87,10.08s8.81-4.17,8.81-10.08v-28.23h10.82v29.24Z"></path><polygon class="cls-1" points="269.72 108.19 269.72 117.87 238.87 117.87 238.87 70.82 249.76 70.82 249.76 108.19 269.72 108.19"></polygon><path class="cls-1" d="M316.57,94.21c0,14.65-9.01,23.66-23.52,23.66h-16.6v-47.05h16.6c14.52,0,23.52,8.74,23.52,23.39M305.21,94.21c0-8.87-4.57-13.71-12.77-13.71h-4.91v27.69h4.91c8.2,0,12.77-5.04,12.77-13.98"></path><path class="cls-1" d="M361.61,117v.87h-11.36l-2.35-8.07h-15.33l-2.35,8.07h-11.36v-.87l14.79-46.18h13.17l14.79,46.18ZM345.14,100.26l-4.91-16.87-4.91,16.87h9.81Z"></path><path class="cls-1" d="M407.71,94.21c0,14.65-9.01,23.66-23.52,23.66h-16.6v-47.05h16.6c14.52,0,23.52,8.74,23.52,23.39M396.35,94.21c0-8.87-4.57-13.71-12.77-13.71h-4.91v27.69h4.91c8.2,0,12.77-5.04,12.77-13.98"></path><polygon class="cls-1" points="425.93 80.5 425.93 89.44 441.99 89.44 441.99 99.12 425.93 99.12 425.93 108.19 446.36 108.19 446.36 117.87 415.04 117.87 415.04 70.82 446.36 70.82 446.36 80.5 425.93 80.5"></polygon></svg>